<svg version="1.1" xmlns="http://www.w3.org/2000/svg" viewBox="0 0 364.7419746978927 336.75010495746557" width="364.7419746978927" height="336.75010495746557" class="excalidraw-svg">
  <!-- svg-source:excalidraw -->
  
  <defs>
    <style class="style-fonts">
      @font-face {
        font-family: "Virgil";
        src: url("https://excalidraw.com/Virgil.woff2");
      }
      @font-face {
        font-family: "Cascadia";
        src: url("https://excalidraw.com/Cascadia.woff2");
      }
      @font-face {
        font-family: "Assistant";
        src: url("https://excalidraw.com/Assistant-Regular.woff2");
      }
    </style>
    
  </defs>
  <rect x="0" y="0" width="364.7419746978927" height="336.75010495746557" fill="#ffffff"></rect><g stroke-linecap="round"><g transform="translate(182.37098734894641 10) rotate(0 -9.769962616701378e-15 158.37505247873278)"><path d="M0 0 C0 52.79, 0 263.96, 0 316.75 M0 0 C0 52.79, 0 263.96, 0 316.75" stroke="#c7c7c7" stroke-width="1" fill="none"></path></g></g><mask></mask><g stroke-linecap="round"><g transform="translate(10 186.7907562553296) rotate(0 172.37098734894636 0)"><path d="M0 0 C57.46 0, 287.28 0, 344.74 0 M0 0 C57.46 0, 287.28 0, 344.74 0" stroke="#c7c7c7" stroke-width="1" fill="none"></path></g></g><mask></mask><g transform="translate(135.2267856808586 258.9803150595892) rotate(0 22.467158607448056 -45.67094536596014)" stroke="none"><path fill="#1e1e1e" d="M -1.30,0.13 Q -1.30,0.13 -1.79,-1.95 -2.28,-4.04 -2.37,-5.84 -2.47,-7.63 -2.52,-10.10 -2.57,-12.57 -2.59,-14.88 -2.61,-17.20 -2.65,-19.88 -2.68,-22.56 -2.70,-25.18 -2.71,-27.80 -2.74,-31.24 -2.76,-34.68 -2.78,-37.42 -2.79,-40.15 -2.59,-43.29 -2.38,-46.43 -2.31,-48.97 -2.23,-51.51 -2.00,-54.36 -1.76,-57.20 -1.45,-59.51 -1.14,-61.81 -0.81,-64.44 -0.47,-67.08 -0.11,-69.11 0.24,-71.14 0.84,-73.16 1.44,-75.18 1.88,-76.81 2.32,-78.44 2.99,-79.95 3.67,-81.46 4.39,-82.76 5.11,-84.06 6.13,-85.36 7.15,-86.67 8.22,-87.85 9.28,-89.04 10.27,-89.87 11.25,-90.69 12.45,-91.34 13.65,-91.99 15.39,-92.60 17.13,-93.21 18.40,-93.19 19.68,-93.18 21.70,-92.92 23.72,-92.67 25.50,-92.30 27.29,-91.94 29.17,-91.32 31.05,-90.70 32.21,-89.98 33.37,-89.27 34.83,-88.51 36.28,-87.74 37.24,-87.02 38.20,-86.30 39.74,-85.23 41.28,-84.16 42.10,-83.44 42.91,-82.72 43.63,-81.81 44.35,-80.90 45.39,-78.21 46.43,-75.52 46.54,-75.34 46.65,-75.16 46.70,-74.95 46.75,-74.74 46.74,-74.53 46.72,-74.32 46.63,-74.12 46.55,-73.93 46.41,-73.77 46.26,-73.62 46.08,-73.51 45.89,-73.41 45.68,-73.37 45.47,-73.33 45.26,-73.36 45.05,-73.39 44.86,-73.49 44.67,-73.58 44.52,-73.73 44.37,-73.88 44.28,-74.07 44.19,-74.26 44.16,-74.48 44.13,-74.69 44.17,-74.89 44.21,-75.10 44.32,-75.29 44.43,-75.47 44.58,-75.61 44.74,-75.75 44.94,-75.84 45.14,-75.92 45.35,-75.94 45.56,-75.95 45.76,-75.90 45.97,-75.85 46.15,-75.73 46.33,-75.62 46.46,-75.45 46.59,-75.28 46.66,-75.08 46.74,-74.88 46.74,-74.67 46.75,-74.46 46.68,-74.26 46.62,-74.05 46.49,-73.88 46.37,-73.71 46.20,-73.59 46.02,-73.46 45.82,-73.40 45.62,-73.34 45.40,-73.35 45.19,-73.35 44.99,-73.43 44.79,-73.50 44.63,-73.64 44.46,-73.77 44.46,-73.77 44.46,-73.77 42.72,-74.73 40.97,-75.70 40.26,-76.53 39.54,-77.37 38.55,-78.55 37.55,-79.73 36.14,-80.83 34.72,-81.93 33.40,-82.84 32.09,-83.75 30.68,-84.70 29.28,-85.64 28.26,-86.00 27.24,-86.36 26.00,-86.89 24.77,-87.42 23.02,-87.79 21.28,-88.15 19.88,-88.36 18.49,-88.57 17.14,-88.14 15.80,-87.71 14.25,-86.80 12.71,-85.89 11.72,-84.83 10.72,-83.78 9.89,-82.79 9.06,-81.80 8.41,-80.69 7.76,-79.57 7.19,-78.41 6.63,-77.24 6.16,-75.57 5.69,-73.89 5.13,-72.12 4.58,-70.35 4.22,-68.43 3.87,-66.51 3.51,-63.85 3.15,-61.20 2.82,-59.01 2.50,-56.82 2.23,-54.09 1.96,-51.36 1.86,-48.75 1.76,-46.14 1.54,-43.15 1.32,-40.15 1.31,-37.42 1.30,-34.68 1.27,-31.24 1.25,-27.80 1.24,-25.18 1.23,-22.57 1.21,-19.89 1.19,-17.22 1.20,-14.93 1.21,-12.63 1.23,-10.22 1.26,-7.82 1.35,-6.12 1.43,-4.42 1.37,-2.27 1.30,-0.13 1.30,0.02 1.30,0.18 1.25,0.33 1.21,0.49 1.14,0.63 1.06,0.76 0.95,0.88 0.84,1.00 0.71,1.08 0.58,1.17 0.43,1.22 0.28,1.28 0.12,1.29 -0.02,1.31 -0.18,1.29 -0.34,1.26 -0.48,1.20 -0.63,1.14 -0.76,1.05 -0.89,0.96 -0.99,0.84 -1.09,0.72 -1.16,0.58 -1.23,0.43 -1.27,0.28 -1.30,0.13 -1.30,0.13 L -1.30,0.13 Z"></path></g><g transform="translate(62.30059872553511 185.3174999532019) rotate(0 1.4732563021277372 2.9465126042554743)" stroke="none"><path fill="#1e1e1e" d="M 0.92,0.92 Q 0.92,0.92 0.81,1.81 0.71,2.70 1.36,1.77 2.02,0.83 1.96,3.35 1.90,5.87 1.89,6.08 1.87,6.29 1.79,6.49 1.71,6.68 1.57,6.84 1.44,7.01 1.25,7.11 1.07,7.22 0.86,7.27 0.66,7.31 0.44,7.29 0.23,7.26 0.04,7.17 -0.14,7.08 -0.30,6.94 -0.45,6.79 -0.55,6.60 -0.65,6.41 -0.68,6.20 -0.71,5.99 -0.68,5.78 -0.64,5.57 -0.54,5.39 -0.44,5.20 -0.28,5.05 -0.13,4.91 0.05,4.82 0.25,4.73 0.46,4.71 0.67,4.69 0.88,4.74 1.08,4.78 1.27,4.89 1.45,5.00 1.58,5.17 1.72,5.33 1.80,5.53 1.88,5.73 1.89,5.94 1.90,6.15 1.84,6.35 1.78,6.56 1.66,6.73 1.54,6.91 1.37,7.04 1.20,7.16 1.00,7.23 0.80,7.30 0.58,7.30 0.37,7.30 0.17,7.23 -0.02,7.16 -0.19,7.03 -0.36,6.90 -0.48,6.72 -0.59,6.54 -0.65,6.34 -0.71,6.13 -0.71,6.13 -0.71,6.13 -1.40,2.48 -2.10,-1.17 -1.06,-2.47 -0.02,-3.78 2.20,-3.68 4.43,-3.59 5.45,-2.69 6.48,-1.78 6.90,-0.66 7.33,0.45 7.39,1.71 7.44,2.97 6.47,4.59 5.49,6.21 4.50,7.00 3.50,7.79 2.27,8.03 1.04,8.27 -0.01,8.01 -1.08,7.75 -2.29,6.26 -3.50,4.76 -3.72,3.62 -3.95,2.49 -3.60,1.16 -3.25,-0.15 -2.09,-0.54 -0.92,-0.92 -0.80,-1.02 -0.67,-1.12 -0.53,-1.18 -0.39,-1.25 -0.23,-1.28 -0.07,-1.31 0.07,-1.30 0.23,-1.29 0.38,-1.24 0.53,-1.19 0.67,-1.11 0.80,-1.03 0.92,-0.92 1.03,-0.80 1.11,-0.67 1.19,-0.53 1.24,-0.38 1.29,-0.23 1.30,-0.07 1.31,0.07 1.28,0.23 1.25,0.39 1.18,0.53 1.12,0.67 1.02,0.80 0.92,0.92 0.92,0.92 L 0.92,0.92 Z"></path></g><g transform="translate(39.46512604255503 211.09948524043745) rotate(0 5.156397057447123 -0.3683140755319414)" stroke="none"><path fill="#1e1e1e" d="M -0.12,-0.64 Q -0.12,-0.64 0.83,-1.33 1.79,-2.03 3.19,-2.14 4.59,-2.25 5.59,-2.28 6.59,-2.30 8.27,-1.84 9.94,-1.38 10.05,-1.37 10.15,-1.35 10.25,-1.30 10.34,-1.25 10.42,-1.18 10.49,-1.10 10.54,-1.01 10.58,-0.91 10.59,-0.81 10.61,-0.70 10.59,-0.60 10.56,-0.49 10.51,-0.40 10.46,-0.31 10.38,-0.24 10.30,-0.17 10.20,-0.13 10.10,-0.09 9.99,-0.08 9.89,-0.07 9.79,-0.10 9.68,-0.13 9.59,-0.19 9.51,-0.25 9.44,-0.33 9.37,-0.41 9.34,-0.51 9.30,-0.61 9.30,-0.72 9.30,-0.83 9.33,-0.93 9.37,-1.03 9.43,-1.11 9.49,-1.20 9.58,-1.26 9.67,-1.32 9.77,-1.35 9.87,-1.38 9.98,-1.37 10.08,-1.37 10.18,-1.33 10.28,-1.29 10.36,-1.23 10.45,-1.16 10.50,-1.07 10.56,-0.98 10.58,-0.87 10.61,-0.77 10.60,-0.66 10.59,-0.56 10.54,-0.46 10.50,-0.37 10.43,-0.29 10.35,-0.21 10.26,-0.16 10.17,-0.11 10.06,-0.09 9.96,-0.07 9.96,-0.07 9.96,-0.07 8.34,0.43 6.72,0.94 5.77,0.99 4.82,1.04 3.63,1.11 2.43,1.18 1.28,0.91 0.12,0.64 0.04,0.64 -0.02,0.65 -0.10,0.64 -0.18,0.62 -0.25,0.59 -0.33,0.56 -0.39,0.51 -0.45,0.47 -0.50,0.41 -0.55,0.34 -0.59,0.27 -0.62,0.20 -0.63,0.12 -0.65,0.05 -0.65,-0.02 -0.64,-0.10 -0.62,-0.18 -0.60,-0.25 -0.56,-0.32 -0.52,-0.39 -0.46,-0.45 -0.41,-0.51 -0.34,-0.55 -0.27,-0.59 -0.20,-0.61 -0.12,-0.64 -0.12,-0.64 L -0.12,-0.64 Z"></path></g><g transform="translate(54.93431721489634 202.99657557873485) rotate(0 0.7366281510638828 5.893025208510977)" stroke="none"><path fill="#1e1e1e" d="M 0.64,-0.12 Q 0.64,-0.12 1.23,0.85 1.82,1.83 1.95,3.00 2.07,4.16 2.33,5.39 2.59,6.62 2.34,8.92 2.10,11.22 2.08,11.32 2.07,11.43 2.03,11.53 1.98,11.62 1.91,11.70 1.84,11.78 1.74,11.83 1.65,11.88 1.54,11.89 1.44,11.91 1.33,11.89 1.23,11.88 1.14,11.83 1.04,11.78 0.97,11.70 0.90,11.62 0.85,11.53 0.81,11.43 0.80,11.32 0.78,11.22 0.81,11.11 0.83,11.01 0.88,10.92 0.94,10.83 1.02,10.76 1.10,10.69 1.20,10.65 1.30,10.61 1.41,10.61 1.51,10.60 1.61,10.63 1.72,10.66 1.80,10.72 1.89,10.78 1.96,10.86 2.02,10.95 2.05,11.05 2.09,11.15 2.09,11.25 2.09,11.36 2.05,11.46 2.02,11.56 1.96,11.65 1.89,11.73 1.80,11.79 1.72,11.85 1.61,11.88 1.51,11.91 1.40,11.90 1.30,11.89 1.20,11.86 1.10,11.82 1.02,11.75 0.94,11.68 0.88,11.59 0.83,11.50 0.81,11.39 0.78,11.29 0.78,11.29 0.78,11.29 0.20,9.24 -0.38,7.19 -0.62,5.80 -0.87,4.41 -0.92,3.40 -0.98,2.39 -0.81,1.26 -0.64,0.12 -0.64,0.04 -0.65,-0.02 -0.64,-0.10 -0.62,-0.18 -0.59,-0.25 -0.56,-0.33 -0.51,-0.39 -0.47,-0.45 -0.41,-0.50 -0.34,-0.55 -0.27,-0.59 -0.20,-0.62 -0.12,-0.63 -0.05,-0.65 0.02,-0.65 0.10,-0.64 0.18,-0.62 0.25,-0.60 0.32,-0.56 0.39,-0.52 0.45,-0.46 0.51,-0.41 0.55,-0.34 0.59,-0.27 0.61,-0.20 0.64,-0.12 0.64,-0.12 L 0.64,-0.12 Z"></path></g><g transform="translate(63.77385502766282 214.04599784469292) rotate(0 0.3683140755319414 3.314826679787444)" stroke="none"><path fill="#1e1e1e" d="M 0.65,0 Q 0.65,0 1.05,1.26 1.45,2.52 1.39,4.30 1.33,6.08 1.32,6.18 1.32,6.29 1.28,6.39 1.24,6.49 1.17,6.57 1.11,6.65 1.02,6.71 0.93,6.76 0.82,6.79 0.72,6.81 0.61,6.80 0.51,6.79 0.41,6.75 0.31,6.71 0.24,6.63 0.16,6.56 0.11,6.47 0.06,6.37 0.04,6.27 0.02,6.17 0.03,6.06 0.05,5.96 0.10,5.86 0.15,5.77 0.22,5.69 0.30,5.62 0.40,5.57 0.49,5.53 0.60,5.51 0.70,5.50 0.81,5.52 0.91,5.54 1.00,5.60 1.09,5.65 1.16,5.73 1.23,5.81 1.27,5.91 1.31,6.01 1.32,6.11 1.33,6.22 1.30,6.32 1.27,6.43 1.22,6.52 1.16,6.60 1.07,6.67 0.99,6.73 0.89,6.77 0.79,6.80 0.68,6.81 0.58,6.81 0.48,6.77 0.37,6.74 0.29,6.68 0.20,6.62 0.14,6.53 0.08,6.44 0.05,6.34 0.02,6.24 0.02,6.24 0.02,6.24 -0.71,4.39 -1.45,2.55 -1.05,1.27 -0.65,0 -0.64,-0.07 -0.63,-0.15 -0.60,-0.23 -0.58,-0.30 -0.53,-0.37 -0.49,-0.43 -0.43,-0.48 -0.37,-0.54 -0.30,-0.57 -0.23,-0.61 -0.15,-0.63 -0.07,-0.65 0.00,-0.65 0.07,-0.65 0.15,-0.63 0.23,-0.61 0.30,-0.57 0.37,-0.54 0.43,-0.48 0.49,-0.43 0.53,-0.37 0.58,-0.30 0.60,-0.23 0.63,-0.15 0.64,-0.07 0.65,0.00 0.65,0.00 L 0.65,0 Z"></path></g><g transform="translate(69.66688023617382 205.20646003192644) rotate(0 3.314826679787444 1.1049422265958242)" stroke="none"><path fill="#1e1e1e" d="M 0.54,0.36 Q 0.54,0.36 0.36,1.07 0.18,1.79 0.51,2.75 0.83,3.70 1.27,4.26 1.71,4.82 2.22,5.21 2.74,5.61 3.97,5.83 5.21,6.04 6.10,5.22 7.00,4.40 7.18,2.77 7.36,1.14 7.19,0.33 7.02,-0.47 6.39,-1.27 5.76,-2.06 5.15,-2.58 4.54,-3.09 3.44,-3.17 2.33,-3.25 1.42,-2.89 0.51,-2.54 -0.37,-1.37 -1.26,-0.19 -1.33,-0.12 -1.41,-0.04 -1.50,-0.00 -1.60,0.04 -1.70,0.06 -1.81,0.07 -1.91,0.05 -2.02,0.03 -2.11,-0.01 -2.20,-0.06 -2.27,-0.14 -2.35,-0.22 -2.39,-0.31 -2.43,-0.41 -2.44,-0.52 -2.45,-0.62 -2.42,-0.73 -2.40,-0.83 -2.34,-0.92 -2.29,-1.01 -2.20,-1.08 -2.12,-1.14 -2.02,-1.18 -1.92,-1.22 -1.82,-1.22 -1.71,-1.23 -1.61,-1.20 -1.51,-1.16 -1.42,-1.10 -1.33,-1.04 -1.27,-0.96 -1.21,-0.87 -1.18,-0.77 -1.14,-0.67 -1.15,-0.56 -1.15,-0.45 -1.19,-0.35 -1.22,-0.25 -1.29,-0.17 -1.35,-0.09 -1.44,-0.03 -1.53,0.02 -1.63,0.04 -1.74,0.07 -1.84,0.06 -1.95,0.05 -2.05,0.01 -2.14,-0.02 -2.22,-0.09 -2.30,-0.16 -2.36,-0.25 -2.41,-0.34 -2.43,-0.45 -2.45,-0.55 -2.44,-0.66 -2.42,-0.76 -2.38,-0.86 -2.33,-0.95 -2.33,-0.95 -2.33,-0.95 -1.36,-2.41 -0.39,-3.86 0.77,-4.86 1.93,-5.86 3.20,-5.97 4.46,-6.08 5.44,-5.66 6.42,-5.25 7.26,-4.45 8.09,-3.64 8.87,-2.32 9.65,-1.00 9.80,0.17 9.95,1.36 9.75,2.88 9.54,4.40 9.10,5.28 8.65,6.16 7.88,6.82 7.11,7.48 6.20,7.94 5.29,8.40 4.15,8.31 3.01,8.21 2.12,7.89 1.23,7.57 0.47,6.93 -0.29,6.28 -0.90,5.38 -1.50,4.48 -1.74,3.60 -1.99,2.72 -1.93,1.73 -1.87,0.74 -1.21,0.19 -0.54,-0.36 -0.49,-0.42 -0.44,-0.48 -0.37,-0.53 -0.31,-0.57 -0.24,-0.60 -0.16,-0.63 -0.08,-0.64 -0.01,-0.65 0.06,-0.64 0.14,-0.64 0.22,-0.61 0.29,-0.58 0.36,-0.54 0.42,-0.49 0.48,-0.44 0.53,-0.38 0.57,-0.31 0.61,-0.24 0.63,-0.16 0.65,-0.08 0.65,-0.01 0.65,0.06 0.63,0.14 0.61,0.22 0.58,0.29 0.54,0.36 0.54,0.36 L 0.54,0.36 Z"></path></g><g transform="translate(36.51861343829955 198.5768066723516) rotate(0 -0.3683140755319698 9.576165963830334)" stroke="none"><path fill="#1e1e1e" d="M 0.52,0.39 Q 0.52,0.39 0.23,1.49 -0.06,2.59 -0.45,3.45 -0.84,4.32 -0.98,5.99 -1.11,7.66 -1.21,9.25 -1.32,10.84 -0.83,12.37 -0.34,13.90 -0.07,15.08 0.19,16.27 1.15,17.23 2.11,18.20 2.18,18.28 2.24,18.36 2.28,18.46 2.32,18.56 2.33,18.67 2.33,18.77 2.31,18.88 2.28,18.98 2.22,19.07 2.16,19.15 2.07,19.22 1.99,19.28 1.89,19.32 1.79,19.35 1.68,19.35 1.57,19.35 1.47,19.31 1.37,19.28 1.29,19.22 1.20,19.15 1.14,19.06 1.08,18.98 1.06,18.87 1.03,18.77 1.03,18.66 1.04,18.56 1.08,18.46 1.12,18.36 1.19,18.28 1.26,18.20 1.35,18.15 1.44,18.09 1.54,18.07 1.65,18.05 1.75,18.06 1.86,18.07 1.95,18.11 2.05,18.16 2.13,18.23 2.20,18.30 2.25,18.40 2.30,18.49 2.32,18.60 2.34,18.70 2.32,18.81 2.30,18.91 2.25,19.01 2.20,19.10 2.13,19.17 2.05,19.25 1.95,19.29 1.86,19.33 1.75,19.35 1.64,19.36 1.54,19.33 1.44,19.31 1.35,19.26 1.26,19.20 1.26,19.20 1.26,19.20 -0.15,18.14 -1.57,17.09 -2.23,15.92 -2.89,14.76 -3.60,12.76 -4.31,10.77 -4.24,9.05 -4.17,7.33 -3.89,5.18 -3.62,3.04 -3.04,1.92 -2.47,0.79 -1.50,0.20 -0.52,-0.39 -0.47,-0.45 -0.41,-0.50 -0.34,-0.55 -0.28,-0.59 -0.20,-0.61 -0.13,-0.64 -0.05,-0.64 0.02,-0.65 0.10,-0.64 0.18,-0.63 0.25,-0.59 0.32,-0.56 0.39,-0.52 0.45,-0.47 0.50,-0.41 0.55,-0.35 0.58,-0.27 0.62,-0.20 0.63,-0.13 0.65,-0.05 0.65,0.02 0.64,0.10 0.62,0.18 0.60,0.25 0.56,0.32 0.52,0.39 0.52,0.39 L 0.52,0.39 Z"></path></g><g transform="translate(79.24304620000419 197.10355037022384) rotate(0 3.3148266797874157 9.576165963830363)" stroke="none"><path fill="#1e1e1e" d="M 0.54,-0.36 Q 0.54,-0.36 1.64,0.74 2.73,1.84 3.54,3.00 4.35,4.16 5.18,5.78 6.01,7.40 6.60,8.98 7.18,10.55 7.45,11.71 7.71,12.87 7.60,14.18 7.48,15.48 6.32,17.35 5.16,19.23 5.08,19.30 5.01,19.38 4.92,19.43 4.82,19.48 4.72,19.49 4.61,19.51 4.51,19.49 4.40,19.47 4.31,19.42 4.22,19.37 4.14,19.30 4.07,19.22 4.03,19.12 3.98,19.02 3.97,18.92 3.96,18.81 3.99,18.71 4.01,18.61 4.07,18.51 4.12,18.42 4.20,18.36 4.28,18.29 4.38,18.25 4.48,18.21 4.59,18.21 4.69,18.20 4.80,18.23 4.90,18.26 4.99,18.32 5.07,18.38 5.14,18.47 5.20,18.55 5.23,18.65 5.27,18.75 5.27,18.86 5.26,18.97 5.23,19.07 5.19,19.17 5.13,19.25 5.06,19.34 4.98,19.39 4.89,19.45 4.78,19.48 4.68,19.51 4.58,19.50 4.47,19.49 4.37,19.45 4.27,19.41 4.19,19.34 4.11,19.27 4.06,19.18 4.01,19.09 3.98,18.99 3.96,18.88 3.97,18.78 3.99,18.67 4.03,18.58 4.08,18.48 4.08,18.48 4.08,18.48 4.36,16.83 4.64,15.18 4.75,14.30 4.87,13.43 4.68,12.47 4.49,11.50 4.01,10.05 3.53,8.60 2.85,7.11 2.17,5.61 1.41,4.42 0.65,3.23 0.05,1.80 -0.54,0.36 -0.58,0.29 -0.61,0.22 -0.63,0.14 -0.65,0.06 -0.65,-0.01 -0.65,-0.08 -0.63,-0.16 -0.61,-0.24 -0.57,-0.31 -0.53,-0.38 -0.48,-0.44 -0.42,-0.49 -0.36,-0.54 -0.29,-0.58 -0.22,-0.61 -0.14,-0.64 -0.06,-0.64 0.01,-0.65 0.08,-0.64 0.16,-0.63 0.24,-0.60 0.31,-0.57 0.37,-0.53 0.44,-0.48 0.49,-0.42 0.54,-0.36 0.54,-0.36 L 0.54,-0.36 Z"></path></g></svg>